<svg xmlns="http://www.w3.org/2000/svg" viewBox="0 0 32 32">
  <rect width="32" height="32" rx="8" fill="#111827" />
  <path
    fill="#f9fafb"
    d="M21 16.625c-.621 0-1.125.504-1.125 1.125v2.125H17.75a1.125 1.125 0 0 0 0 2.25h2.125v2.125a1.125 1.125 0 0 0 2.25 0v-2.125h2.125a1.125 1.125 0 0 0 0-2.25h-2.125V17.75c0-.621-.504-1.125-1.125-1.125m-12.25 3.25a1.125 1.125 0 0 0 0 2.25h4.5a1.125 1.125 0 0 0 0-2.25zM11 6.625c-.621 0-1.125.504-1.125 1.125v2.125H7.75a1.125 1.125 0 0 0 0 2.25h2.125v2.125a1.125 1.125 0 0 0 2.25 0v-2.125h2.125a1.125 1.125 0 0 0 0-2.25h-2.125V7.75c0-.621-.504-1.125-1.125-1.125m7.75 3.25a1.125 1.125 0 0 0 0 2.25h4.5a1.125 1.125 0 0 0 0-2.25z"
  />
</svg>
